<mxfile host="app.diagrams.net" modified="2023-04-28T13:42:36.475Z" agent="Mozilla/5.0 (Macintosh; Intel Mac OS X 10_15_7) AppleWebKit/537.36 (KHTML, like Gecko) Chrome/112.0.0.0 Safari/537.36" etag="KBuXQSfSdvcdkHH5QLnS" version="21.2.1" type="github">
  <diagram name="Page-1" id="nXsPfyDoOc6o2Pp79haq">
    <mxGraphModel dx="1383" dy="771" grid="1" gridSize="10" guides="1" tooltips="1" connect="1" arrows="1" fold="1" page="1" pageScale="1" pageWidth="827" pageHeight="1169" math="0" shadow="0">
      <root>
        <mxCell id="0" />
        <mxCell id="1" parent="0" />
        <mxCell id="cWgpzWaXeAE2Ut4go0my-1" value="XML-sender&lt;br&gt;dest-ID: 4" style="rounded=0;whiteSpace=wrap;html=1;" vertex="1" parent="1">
          <mxGeometry x="20" y="360" width="120" height="60" as="geometry" />
        </mxCell>
        <mxCell id="cWgpzWaXeAE2Ut4go0my-2" value="BINARY-sender&lt;br&gt;dest-id: 6" style="rounded=0;whiteSpace=wrap;html=1;" vertex="1" parent="1">
          <mxGeometry x="500" y="360" width="120" height="60" as="geometry" />
        </mxCell>
        <mxCell id="cWgpzWaXeAE2Ut4go0my-3" value="Record" style="shape=parallelogram;perimeter=parallelogramPerimeter;whiteSpace=wrap;html=1;fixedSize=1;" vertex="1" parent="1">
          <mxGeometry x="160" y="370" width="90" height="40" as="geometry" />
        </mxCell>
        <mxCell id="cWgpzWaXeAE2Ut4go0my-4" value="Record" style="shape=parallelogram;perimeter=parallelogramPerimeter;whiteSpace=wrap;html=1;fixedSize=1;" vertex="1" parent="1">
          <mxGeometry x="390" y="370" width="90" height="40" as="geometry" />
        </mxCell>
        <mxCell id="cWgpzWaXeAE2Ut4go0my-5" value="Proxy server" style="ellipse;whiteSpace=wrap;html=1;" vertex="1" parent="1">
          <mxGeometry x="270" y="355" width="100" height="70" as="geometry" />
        </mxCell>
        <mxCell id="cWgpzWaXeAE2Ut4go0my-7" value="" style="endArrow=classic;html=1;rounded=0;fillColor=#e51400;strokeColor=#B20000;" edge="1" parent="1" source="cWgpzWaXeAE2Ut4go0my-1">
          <mxGeometry width="50" height="50" relative="1" as="geometry">
            <mxPoint x="140" y="440" as="sourcePoint" />
            <mxPoint x="170" y="390" as="targetPoint" />
          </mxGeometry>
        </mxCell>
        <mxCell id="cWgpzWaXeAE2Ut4go0my-8" value="" style="endArrow=classic;html=1;rounded=0;entryX=0;entryY=0.5;entryDx=0;entryDy=0;fillColor=#e51400;strokeColor=#B20000;" edge="1" parent="1" source="cWgpzWaXeAE2Ut4go0my-3" target="cWgpzWaXeAE2Ut4go0my-5">
          <mxGeometry width="50" height="50" relative="1" as="geometry">
            <mxPoint x="250" y="440" as="sourcePoint" />
            <mxPoint x="320.71067811865476" y="390" as="targetPoint" />
          </mxGeometry>
        </mxCell>
        <mxCell id="cWgpzWaXeAE2Ut4go0my-9" value="" style="endArrow=classic;html=1;rounded=0;entryX=1;entryY=0.5;entryDx=0;entryDy=0;exitX=0;exitY=0.5;exitDx=0;exitDy=0;fillColor=#6a00ff;strokeColor=#3700CC;" edge="1" parent="1" source="cWgpzWaXeAE2Ut4go0my-2" target="cWgpzWaXeAE2Ut4go0my-4">
          <mxGeometry width="50" height="50" relative="1" as="geometry">
            <mxPoint x="470" y="470" as="sourcePoint" />
            <mxPoint x="520" y="420" as="targetPoint" />
          </mxGeometry>
        </mxCell>
        <mxCell id="cWgpzWaXeAE2Ut4go0my-10" value="" style="endArrow=classic;html=1;rounded=0;fillColor=#0050ef;strokeColor=#001DBC;" edge="1" parent="1" source="cWgpzWaXeAE2Ut4go0my-4">
          <mxGeometry width="50" height="50" relative="1" as="geometry">
            <mxPoint x="319.28932188134524" y="440" as="sourcePoint" />
            <mxPoint x="370" y="390" as="targetPoint" />
          </mxGeometry>
        </mxCell>
        <mxCell id="cWgpzWaXeAE2Ut4go0my-11" value="Convert&lt;br&gt;internal format&lt;br&gt;convert()" style="ellipse;shape=cloud;whiteSpace=wrap;html=1;" vertex="1" parent="1">
          <mxGeometry x="260" y="440" width="120" height="80" as="geometry" />
        </mxCell>
        <mxCell id="cWgpzWaXeAE2Ut4go0my-12" value="" style="endArrow=classic;html=1;rounded=0;exitX=0.5;exitY=1;exitDx=0;exitDy=0;fillColor=#e51400;strokeColor=#B20000;" edge="1" parent="1" source="cWgpzWaXeAE2Ut4go0my-5" target="cWgpzWaXeAE2Ut4go0my-11">
          <mxGeometry width="50" height="50" relative="1" as="geometry">
            <mxPoint x="290" y="580" as="sourcePoint" />
            <mxPoint x="340" y="530" as="targetPoint" />
          </mxGeometry>
        </mxCell>
        <mxCell id="cWgpzWaXeAE2Ut4go0my-13" value="Check dest-id&lt;br&gt;checkDestID()" style="ellipse;shape=cloud;whiteSpace=wrap;html=1;" vertex="1" parent="1">
          <mxGeometry x="260" y="530" width="120" height="80" as="geometry" />
        </mxCell>
        <mxCell id="cWgpzWaXeAE2Ut4go0my-14" value="1&lt;br&gt;xml" style="ellipse;whiteSpace=wrap;html=1;aspect=fixed;" vertex="1" parent="1">
          <mxGeometry x="80" y="790" width="50" height="50" as="geometry" />
        </mxCell>
        <mxCell id="cWgpzWaXeAE2Ut4go0my-15" value="2&lt;br&gt;xml" style="ellipse;whiteSpace=wrap;html=1;aspect=fixed;" vertex="1" parent="1">
          <mxGeometry x="180" y="790" width="50" height="50" as="geometry" />
        </mxCell>
        <mxCell id="cWgpzWaXeAE2Ut4go0my-16" value="3&lt;br&gt;binary" style="ellipse;whiteSpace=wrap;html=1;aspect=fixed;" vertex="1" parent="1">
          <mxGeometry x="295" y="790" width="50" height="50" as="geometry" />
        </mxCell>
        <mxCell id="cWgpzWaXeAE2Ut4go0my-17" value="4&lt;br&gt;binary" style="ellipse;whiteSpace=wrap;html=1;aspect=fixed;" vertex="1" parent="1">
          <mxGeometry x="400" y="790" width="50" height="50" as="geometry" />
        </mxCell>
        <mxCell id="cWgpzWaXeAE2Ut4go0my-18" value="5&lt;br&gt;xml" style="ellipse;whiteSpace=wrap;html=1;aspect=fixed;" vertex="1" parent="1">
          <mxGeometry x="510" y="790" width="50" height="50" as="geometry" />
        </mxCell>
        <mxCell id="cWgpzWaXeAE2Ut4go0my-19" value="AnyReceiver" style="shape=document;whiteSpace=wrap;html=1;boundedLbl=1;" vertex="1" parent="1">
          <mxGeometry x="610" y="450" width="120" height="80" as="geometry" />
        </mxCell>
        <mxCell id="cWgpzWaXeAE2Ut4go0my-20" value="" style="endArrow=classic;html=1;rounded=0;exitX=0.55;exitY=0.95;exitDx=0;exitDy=0;exitPerimeter=0;entryX=0.527;entryY=0.143;entryDx=0;entryDy=0;entryPerimeter=0;fillColor=#0050ef;strokeColor=#001DBC;" edge="1" parent="1" source="cWgpzWaXeAE2Ut4go0my-11" target="cWgpzWaXeAE2Ut4go0my-13">
          <mxGeometry width="50" height="50" relative="1" as="geometry">
            <mxPoint x="310" y="580" as="sourcePoint" />
            <mxPoint x="325" y="538" as="targetPoint" />
          </mxGeometry>
        </mxCell>
        <mxCell id="cWgpzWaXeAE2Ut4go0my-22" value="" style="endArrow=classic;html=1;rounded=0;exitX=0.627;exitY=0.972;exitDx=0;exitDy=0;exitPerimeter=0;fillColor=#0050ef;strokeColor=#001DBC;" edge="1" parent="1" source="cWgpzWaXeAE2Ut4go0my-5" target="cWgpzWaXeAE2Ut4go0my-11">
          <mxGeometry width="50" height="50" relative="1" as="geometry">
            <mxPoint x="330" y="430" as="sourcePoint" />
            <mxPoint x="330" y="450" as="targetPoint" />
          </mxGeometry>
        </mxCell>
        <mxCell id="cWgpzWaXeAE2Ut4go0my-23" value="" style="endArrow=classic;html=1;rounded=0;exitX=0.361;exitY=0.893;exitDx=0;exitDy=0;exitPerimeter=0;entryX=0.4;entryY=0.1;entryDx=0;entryDy=0;entryPerimeter=0;fillColor=#e51400;strokeColor=#B20000;" edge="1" parent="1" source="cWgpzWaXeAE2Ut4go0my-11" target="cWgpzWaXeAE2Ut4go0my-13">
          <mxGeometry width="50" height="50" relative="1" as="geometry">
            <mxPoint x="340" y="445" as="sourcePoint" />
            <mxPoint x="340" y="460" as="targetPoint" />
          </mxGeometry>
        </mxCell>
        <mxCell id="cWgpzWaXeAE2Ut4go0my-24" value="Convert to&lt;br&gt;binary&lt;br&gt;convert()" style="ellipse;shape=cloud;whiteSpace=wrap;html=1;" vertex="1" parent="1">
          <mxGeometry x="260" y="610" width="120" height="80" as="geometry" />
        </mxCell>
        <mxCell id="cWgpzWaXeAE2Ut4go0my-26" value="" style="endArrow=classic;html=1;rounded=0;exitX=0.55;exitY=0.95;exitDx=0;exitDy=0;exitPerimeter=0;fillColor=#e51400;strokeColor=#B20000;" edge="1" parent="1" source="cWgpzWaXeAE2Ut4go0my-13">
          <mxGeometry width="50" height="50" relative="1" as="geometry">
            <mxPoint x="320" y="610" as="sourcePoint" />
            <mxPoint x="320" y="620" as="targetPoint" />
          </mxGeometry>
        </mxCell>
        <mxCell id="cWgpzWaXeAE2Ut4go0my-28" value="Record&lt;br&gt;sendToDest()" style="shape=parallelogram;perimeter=parallelogramPerimeter;whiteSpace=wrap;html=1;fixedSize=1;" vertex="1" parent="1">
          <mxGeometry x="270" y="700" width="105" height="50" as="geometry" />
        </mxCell>
        <mxCell id="cWgpzWaXeAE2Ut4go0my-29" value="" style="endArrow=classic;html=1;rounded=0;exitX=0.55;exitY=0.95;exitDx=0;exitDy=0;exitPerimeter=0;entryX=0.571;entryY=0.037;entryDx=0;entryDy=0;entryPerimeter=0;fillColor=#e51400;strokeColor=#B20000;" edge="1" parent="1" source="cWgpzWaXeAE2Ut4go0my-24" target="cWgpzWaXeAE2Ut4go0my-28">
          <mxGeometry width="50" height="50" relative="1" as="geometry">
            <mxPoint x="320" y="720" as="sourcePoint" />
            <mxPoint x="370" y="670" as="targetPoint" />
          </mxGeometry>
        </mxCell>
        <mxCell id="cWgpzWaXeAE2Ut4go0my-31" value="" style="endArrow=classic;html=1;rounded=0;fillColor=#e51400;strokeColor=#B20000;" edge="1" parent="1" source="cWgpzWaXeAE2Ut4go0my-28" target="cWgpzWaXeAE2Ut4go0my-17">
          <mxGeometry width="50" height="50" relative="1" as="geometry">
            <mxPoint x="322.5" y="800" as="sourcePoint" />
            <mxPoint x="322.5" y="820.7106781186548" as="targetPoint" />
          </mxGeometry>
        </mxCell>
        <mxCell id="cWgpzWaXeAE2Ut4go0my-34" value="dest-id&lt;br&gt;not found" style="rhombus;whiteSpace=wrap;html=1;" vertex="1" parent="1">
          <mxGeometry x="420" y="530" width="80" height="80" as="geometry" />
        </mxCell>
        <mxCell id="cWgpzWaXeAE2Ut4go0my-35" value="" style="endArrow=classic;html=1;rounded=0;exitX=0.875;exitY=0.5;exitDx=0;exitDy=0;exitPerimeter=0;fillColor=#0050ef;strokeColor=#001DBC;" edge="1" parent="1" source="cWgpzWaXeAE2Ut4go0my-13">
          <mxGeometry width="50" height="50" relative="1" as="geometry">
            <mxPoint x="380" y="620" as="sourcePoint" />
            <mxPoint x="420" y="570" as="targetPoint" />
          </mxGeometry>
        </mxCell>
        <mxCell id="cWgpzWaXeAE2Ut4go0my-36" value="Record&lt;br&gt;sendToDest()" style="shape=parallelogram;perimeter=parallelogramPerimeter;whiteSpace=wrap;html=1;fixedSize=1;" vertex="1" parent="1">
          <mxGeometry x="530" y="550" width="105" height="50" as="geometry" />
        </mxCell>
        <mxCell id="cWgpzWaXeAE2Ut4go0my-37" value="" style="endArrow=classic;html=1;rounded=0;fillColor=#0050ef;strokeColor=#001DBC;" edge="1" parent="1" source="cWgpzWaXeAE2Ut4go0my-34">
          <mxGeometry width="50" height="50" relative="1" as="geometry">
            <mxPoint x="500" y="620" as="sourcePoint" />
            <mxPoint x="540" y="570" as="targetPoint" />
          </mxGeometry>
        </mxCell>
        <mxCell id="cWgpzWaXeAE2Ut4go0my-38" value="" style="endArrow=classic;html=1;rounded=0;entryX=0.207;entryY=0.966;entryDx=0;entryDy=0;entryPerimeter=0;fillColor=#0050ef;strokeColor=#001DBC;" edge="1" parent="1" target="cWgpzWaXeAE2Ut4go0my-19">
          <mxGeometry width="50" height="50" relative="1" as="geometry">
            <mxPoint x="630" y="550" as="sourcePoint" />
            <mxPoint x="680" y="500" as="targetPoint" />
          </mxGeometry>
        </mxCell>
      </root>
    </mxGraphModel>
  </diagram>
</mxfile>
